<?xml version="1.0" encoding="UTF-8" standalone="no"?>
<!DOCTYPE svg PUBLIC "-//W3C//DTD SVG 1.1//EN"
 "http://www.w3.org/Graphics/SVG/1.1/DTD/svg11.dtd">
<!-- Generated by graphviz version 2.42.4 (0)
 -->
<!-- Title: GitWorkflow Pages: 1 -->
<svg width="1351pt" height="206pt"
 viewBox="0.00 0.00 1351.20 206.20" xmlns="http://www.w3.org/2000/svg" xmlns:xlink="http://www.w3.org/1999/xlink">
<g id="graph0" class="graph" transform="scale(1 1) rotate(0) translate(21.6 184.6)">
<title>GitWorkflow</title>
<polygon fill="white" stroke="transparent" points="-21.6,21.6 -21.6,-184.6 1329.6,-184.6 1329.6,21.6 -21.6,21.6"/>
<!-- base -->
<g id="node1" class="node">
<title>base</title>
<path fill="#edf3ff" stroke="#315b9a" d="M109,-98C109,-98 12,-98 12,-98 6,-98 0,-92 0,-86 0,-86 0,-74 0,-74 0,-68 6,-62 12,-62 12,-62 109,-62 109,-62 115,-62 121,-68 121,-74 121,-74 121,-86 121,-86 121,-92 115,-98 109,-98"/>
<text text-anchor="middle" x="60.5" y="-83.2" font-family="DejaVu Sans" font-size="11.00">main</text>
<text text-anchor="middle" x="60.5" y="-71.2" font-family="DejaVu Sans" font-size="11.00">Исходный проект</text>
</g>
<!-- update -->
<g id="node2" class="node">
<title>update</title>
<path fill="#edf3ff" stroke="#315b9a" d="M273,-160C273,-160 176,-160 176,-160 170,-160 164,-154 164,-148 164,-148 164,-136 164,-136 164,-130 170,-124 176,-124 176,-124 273,-124 273,-124 279,-124 285,-130 285,-136 285,-136 285,-148 285,-148 285,-154 279,-160 273,-160"/>
<text text-anchor="middle" x="224.5" y="-145.2" font-family="DejaVu Sans" font-size="11.00">feature/update</text>
<text text-anchor="middle" x="224.5" y="-133.2" font-family="DejaVu Sans" font-size="11.00">3 пункта + тесты</text>
</g>
<!-- base&#45;&gt;update -->
<g id="edge1" class="edge">
<title>base&#45;&gt;update</title>
<path fill="none" stroke="#52647d" d="M108.79,-98.1C127.01,-105.07 147.99,-113.1 166.99,-120.37"/>
<polygon fill="#52647d" stroke="#52647d" points="165.84,-123.68 176.43,-123.99 168.34,-117.14 165.84,-123.68"/>
</g>
<!-- a -->
<g id="node5" class="node">
<title>a</title>
<path fill="#edf3ff" stroke="#315b9a" d="M611,-98C611,-98 525,-98 525,-98 519,-98 513,-92 513,-86 513,-86 513,-74 513,-74 513,-68 519,-62 525,-62 525,-62 611,-62 611,-62 617,-62 623,-68 623,-74 623,-74 623,-86 623,-86 623,-92 617,-98 611,-98"/>
<text text-anchor="middle" x="568" y="-83.2" font-family="DejaVu Sans" font-size="11.00">Роль A</text>
<text text-anchor="middle" x="568" y="-71.2" font-family="DejaVu Sans" font-size="11.00">Проверка чисел</text>
</g>
<!-- base&#45;&gt;a -->
<g id="edge4" class="edge">
<title>base&#45;&gt;a</title>
<path fill="none" stroke="#52647d" d="M121.47,-80C217.33,-80 404.27,-80 502.75,-80"/>
<polygon fill="#52647d" stroke="#52647d" points="502.87,-83.5 512.87,-80 502.87,-76.5 502.87,-83.5"/>
</g>
<!-- b -->
<g id="node6" class="node">
<title>b</title>
<path fill="#edf3ff" stroke="#315b9a" d="M451,-36C451,-36 347,-36 347,-36 341,-36 335,-30 335,-24 335,-24 335,-12 335,-12 335,-6 341,0 347,0 347,0 451,0 451,0 457,0 463,-6 463,-12 463,-12 463,-24 463,-24 463,-30 457,-36 451,-36"/>
<text text-anchor="middle" x="399" y="-21.2" font-family="DejaVu Sans" font-size="11.00">Роль B</text>
<text text-anchor="middle" x="399" y="-9.2" font-family="DejaVu Sans" font-size="11.00">Расчёт статистики</text>
</g>
<!-- base&#45;&gt;b -->
<g id="edge6" class="edge">
<title>base&#45;&gt;b</title>
<path fill="none" stroke="#52647d" d="M121.03,-66.78C135.1,-63.78 150.06,-60.69 164,-58 217.73,-47.65 278.66,-37.27 324.88,-29.69"/>
<polygon fill="#52647d" stroke="#52647d" points="325.5,-33.13 334.8,-28.06 324.37,-26.22 325.5,-33.13"/>
</g>
<!-- fix -->
<g id="node3" class="node">
<title>fix</title>
<path fill="#edf3ff" stroke="#315b9a" d="M458,-161C458,-161 340,-161 340,-161 334,-161 328,-155 328,-149 328,-149 328,-137 328,-137 328,-131 334,-125 340,-125 340,-125 458,-125 458,-125 464,-125 470,-131 470,-137 470,-137 470,-149 470,-149 470,-155 464,-161 458,-161"/>
<text text-anchor="middle" x="399" y="-146.2" font-family="DejaVu Sans" font-size="11.00">Самопроверка</text>
<text text-anchor="middle" x="399" y="-134.2" font-family="DejaVu Sans" font-size="11.00">Исправление ошибок</text>
</g>
<!-- update&#45;&gt;fix -->
<g id="edge2" class="edge">
<title>update&#45;&gt;fix</title>
<path fill="none" stroke="#52647d" d="M285.35,-142.35C295.75,-142.41 306.71,-142.47 317.55,-142.53"/>
<polygon fill="#52647d" stroke="#52647d" points="317.87,-146.04 327.89,-142.59 317.91,-139.04 317.87,-146.04"/>
</g>
<!-- pr2 -->
<g id="node4" class="node">
<title>pr2</title>
<path fill="#edf3ff" stroke="#315b9a" d="M603,-163C603,-163 533,-163 533,-163 527,-163 521,-157 521,-151 521,-151 521,-139 521,-139 521,-133 527,-127 533,-127 533,-127 603,-127 603,-127 609,-127 615,-133 615,-139 615,-139 615,-151 615,-151 615,-157 609,-163 603,-163"/>
<text text-anchor="middle" x="568" y="-148.2" font-family="DejaVu Sans" font-size="11.00">PR #2 → main</text>
<text text-anchor="middle" x="568" y="-136.2" font-family="DejaVu Sans" font-size="11.00">Слияние</text>
</g>
<!-- fix&#45;&gt;pr2 -->
<g id="edge3" class="edge">
<title>fix&#45;&gt;pr2</title>
<path fill="none" stroke="#52647d" d="M470.34,-143.84C483.84,-144 497.82,-144.17 510.81,-144.33"/>
<polygon fill="#52647d" stroke="#52647d" points="510.94,-147.83 520.98,-144.45 511.02,-140.83 510.94,-147.83"/>
</g>
<!-- pr3 -->
<g id="node7" class="node">
<title>pr3</title>
<path fill="#edf3ff" stroke="#315b9a" d="M748,-98C748,-98 678,-98 678,-98 672,-98 666,-92 666,-86 666,-86 666,-74 666,-74 666,-68 672,-62 678,-62 678,-62 748,-62 748,-62 754,-62 760,-68 760,-74 760,-74 760,-86 760,-86 760,-92 754,-98 748,-98"/>
<text text-anchor="middle" x="713" y="-83.2" font-family="DejaVu Sans" font-size="11.00">PR #3 → main</text>
<text text-anchor="middle" x="713" y="-71.2" font-family="DejaVu Sans" font-size="11.00">Изменение A</text>
</g>
<!-- pr2&#45;&gt;pr3 -->
<g id="edge8" class="edge">
<title>pr2&#45;&gt;pr3</title>
<path fill="none" stroke="#52647d" d="M608.83,-126.89C625.57,-119.29 645.2,-110.36 662.83,-102.35"/>
<polygon fill="#52647d" stroke="#52647d" points="664.72,-105.33 672.38,-98.01 661.83,-98.96 664.72,-105.33"/>
</g>
<!-- a&#45;&gt;pr3 -->
<g id="edge5" class="edge">
<title>a&#45;&gt;pr3</title>
<path fill="none" stroke="#52647d" d="M623.06,-80C633.73,-80 644.95,-80 655.69,-80"/>
<polygon fill="#52647d" stroke="#52647d" points="655.81,-83.5 665.81,-80 655.81,-76.5 655.81,-83.5"/>
</g>
<!-- conflict -->
<g id="node8" class="node">
<title>conflict</title>
<path fill="#ffe4d9" stroke="#b7542e" d="M907,-67C907,-67 815,-67 815,-67 809,-67 803,-61 803,-55 803,-55 803,-43 803,-43 803,-37 809,-31 815,-31 815,-31 907,-31 907,-31 913,-31 919,-37 919,-43 919,-43 919,-55 919,-55 919,-61 913,-67 907,-67"/>
<text text-anchor="middle" x="861" y="-52.2" font-family="DejaVu Sans" font-size="11.00">PR #4: конфликт</text>
<text text-anchor="middle" x="861" y="-40.2" font-family="DejaVu Sans" font-size="11.00">shared.txt</text>
</g>
<!-- b&#45;&gt;conflict -->
<g id="edge7" class="edge">
<title>b&#45;&gt;conflict</title>
<path fill="none" stroke="#52647d" d="M463.48,-22.28C550.01,-28.11 704.33,-38.51 792.77,-44.47"/>
<polygon fill="#52647d" stroke="#52647d" points="792.74,-47.98 802.96,-45.16 793.22,-40.99 792.74,-47.98"/>
</g>
<!-- pr3&#45;&gt;conflict -->
<g id="edge9" class="edge">
<title>pr3&#45;&gt;conflict</title>
<path fill="none" stroke="#52647d" d="M760.2,-70.19C770.56,-67.99 781.76,-65.61 792.78,-63.27"/>
<polygon fill="#52647d" stroke="#52647d" points="793.77,-66.64 802.82,-61.14 792.31,-59.79 793.77,-66.64"/>
</g>
<!-- resolve -->
<g id="node9" class="node">
<title>resolve</title>
<path fill="#edf3ff" stroke="#315b9a" d="M1078,-67C1078,-67 974,-67 974,-67 968,-67 962,-61 962,-55 962,-55 962,-43 962,-43 962,-37 968,-31 974,-31 974,-31 1078,-31 1078,-31 1084,-31 1090,-37 1090,-43 1090,-43 1090,-55 1090,-55 1090,-61 1084,-67 1078,-67"/>
<text text-anchor="middle" x="1026" y="-52.2" font-family="DejaVu Sans" font-size="11.00">Разрешение</text>
<text text-anchor="middle" x="1026" y="-40.2" font-family="DejaVu Sans" font-size="11.00">Проверка + расчёт</text>
</g>
<!-- conflict&#45;&gt;resolve -->
<g id="edge10" class="edge">
<title>conflict&#45;&gt;resolve</title>
<path fill="none" stroke="#52647d" d="M919.01,-49C929.62,-49 940.85,-49 951.87,-49"/>
<polygon fill="#52647d" stroke="#52647d" points="951.9,-52.5 961.9,-49 951.9,-45.5 951.9,-52.5"/>
</g>
<!-- merged -->
<g id="node10" class="node">
<title>merged</title>
<path fill="#e3f4e6" stroke="#368147" d="M1296,-67C1296,-67 1145,-67 1145,-67 1139,-67 1133,-61 1133,-55 1133,-55 1133,-43 1133,-43 1133,-37 1139,-31 1145,-31 1145,-31 1296,-31 1296,-31 1302,-31 1308,-37 1308,-43 1308,-43 1308,-55 1308,-55 1308,-61 1302,-67 1296,-67"/>
<text text-anchor="middle" x="1220.5" y="-52.2" font-family="DejaVu Sans" font-size="11.00">PR #4 → main</text>
<text text-anchor="middle" x="1220.5" y="-40.2" font-family="DejaVu Sans" font-size="11.00">Оба изменения сохранены</text>
</g>
<!-- resolve&#45;&gt;merged -->
<g id="edge11" class="edge">
<title>resolve&#45;&gt;merged</title>
<path fill="none" stroke="#52647d" d="M1090.03,-49C1100.53,-49 1111.62,-49 1122.72,-49"/>
<polygon fill="#52647d" stroke="#52647d" points="1122.91,-52.5 1132.91,-49 1122.91,-45.5 1122.91,-52.5"/>
</g>
</g>
</svg>
